# xmcd
#
# Track frame offsets:
#	150
#	4239
#	21297
#	42232
#	64150
#	78193
#	90495
#	91600
#	105921
#	108903
#	126821
#	129822
#	138294
#	153747
#	177762
#
# Disc length: 2570 seconds
#
# Revision: 1
# Processed by: cddbd v1.5.1PL2 Copyright (c) Steve Scherf et al.
# Submitted via: audiograbber 1.83.01
#
DISCID=aa0a080f
DTITLE=Mary Stuart and his Fabulous Superlatives - Live at the Ryman
DYEAR=2006
DGENRE=Traditional Country
TTITLE0=Eddie Stubbs Intro
TTITLE1=Orange Blossom Special
TTITLE2=No Hard Times Blues
TTITLE3=Homesick
TTITLE4=Shuckin' the Corn
TTITLE5=The Whiskey Ain't Workin' Anymore
TTITLE6=Mr. John Henry (Intro)
TTITLE7=Mr. John Henry, the Steel Drivin' Man
TTITLE8=Uncle John's Intro
TTITLE9=Train 45
TTITLE10=Josh's Joke
TTITLE11=The Great Speckled Bird
TTITLE12=Sure Wanna Keep My Wine
TTITLE13=Walk Like That
TTITLE14=Hillbilly Rock
EXTD=
EXTT0=
EXTT1=
EXTT2=
EXTT3=
EXTT4=
EXTT5=
EXTT6=
EXTT7=
EXTT8=
EXTT9=
EXTT10=
EXTT11=
EXTT12=
EXTT13=
EXTT14=
PLAYORDER=
